<svg xmlns="http://www.w3.org/2000/svg" viewBox="0 0 239.79 101.94"><defs><style>.cls-1,.cls-2{fill:#fff;}.cls-2{font-size:56.01px;font-family:TechnoBoardRegular, Techno Board;}.cls-3{font-size:73.19px;}</style></defs><g id="Layer_2" data-name="Layer 2"><g id="white"><path class="cls-1" d="M72.26,21.71C98,5.12,133.12-3.91,166.26,1.63c35,5.85,59,30.47,71.21,56.07.21.45,1.76,5,2.32,5.06-.57.89-3.36-3.36-3.59-3.67-4.82-6.43-9.91-12.65-15.36-18.75C210,28.27,195.26,16,178.24,9.75,146.91-1.72,112.11,4.11,83.46,16.8c-2.62,1.16-5.18,2.38-7.7,3.68C75,20.9,72.93,22.63,72.26,21.71Z"/><path class="cls-1" d="M238.47,72.5a52.49,52.49,0,0,1-5.09-5.27s-5.93-7.88-7.28-9.54c0,0-4-4.75-5.11-6-1.51-1.7-8.7-9-10.63-10.77-1.72-1.56-6.87-5.5-11.8-9.38a97.29,97.29,0,0,0-40.2-16.29,105.89,105.89,0,0,0-53.27,5.34c-16.37,6-31.45,14.25-46.86,21.65-.19.42-.39.83-.61,1.24.15.4.28.82.39,1.23a5.92,5.92,0,0,1,1.06.31c5.43-1.46,10.78-3.1,16.08-4.83,18-5.9,35.62-13.55,55.13-15.88a89.35,89.35,0,0,1,42.47,5.51,139,139,0,0,1,24.79,12.86,98.35,98.35,0,0,1,9.56,7.16c1.58,1.32,12.08,10.35,13.41,11.59,1.77,1.65,3.51,3.31,5.28,5,.64.77,1.87,2.12,2.77,3.1.64.7,1.29,1.39,1.93,2.07-1,.86-1.91,1.73-2.88,2.58a102.7,102.7,0,0,1-33.29,19.27c-22.68,8-51.7,8.53-74.78-.22,12.13,5.46,26.69,8,40.31,8.62a115.1,115.1,0,0,0,49.32-8.69,119.65,119.65,0,0,0,18.17-9.57c3-1.9,5.85-4,8.62-6.12C238.24,75.69,239.7,73.7,238.47,72.5Z"/><text class="cls-2" transform="translate(0 85.15) scale(0.67 1)">blinking<tspan class="cls-3" x="183.87" y="0">S</tspan><tspan x="222.37" y="0">oft</tspan></text></g></g></svg>