<svg xmlns="http://www.w3.org/2000/svg" viewBox="0 0 234.93 99.52"><defs><style>.cls-1{fill:#3ba1c5;}.cls-2{font-size:47.63px;fill:#046;font-family:TechnoBoardRegular, Techno Board;}.cls-3{font-size:62.24px;letter-spacing:0em;}</style></defs><g id="Layer_2" data-name="Layer 2"><g id="orgenal-logo"><path class="cls-1" d="M71.16,27.52C94.61,9.2,127.67-2.43,159.88.43c34,3,58.87,25.35,72.46,49.57.23.42,2,4.74,2.59,4.79-.48.93-3.47-3-3.71-3.32-5.1-5.95-10.44-11.66-16.12-17.24-11.25-11-26.34-22-43.12-26.75C141.07-1.36,108.1,7.1,81.54,21.82c-2.42,1.34-4.8,2.74-7.11,4.21C73.69,26.5,71.87,28.37,71.16,27.52Z"/><path class="cls-1" d="M234.38,64.47a50.71,50.71,0,0,1-5.27-4.78s-6.27-7.28-7.69-8.81c0,0-4.19-4.36-5.34-5.49-1.58-1.56-9-8.2-11-9.76-1.76-1.4-7-4.87-12-8.3A91.8,91.8,0,0,0,153.3,14.45a99.94,99.94,0,0,0-50.73,9.41c-15.26,7.22-29.12,16.46-43.37,25-.15.42-.31.84-.49,1.26a11.28,11.28,0,0,1,.46,1.19,5.14,5.14,0,0,1,1,.21c5.1-1.86,10.11-3.88,15.07-6C92.11,38.26,108.48,29.36,127,25.55a83.91,83.91,0,0,1,41.16,2.1,132.42,132.42,0,0,1,24.73,10.71,93.09,93.09,0,0,1,9.69,6.3C204.23,45.82,215,53.89,216.34,55c1.81,1.48,3.61,3,5.43,4.47.67.71,1.95,1.93,2.89,2.83l2,1.89c-.86.92-1.71,1.85-2.58,2.76a99.32,99.32,0,0,1-30.53,21.54c-21.17,9.61-49,12.43-71.77,5.62,12,4.43,26.2,5.77,39.32,5.34a109.08,109.08,0,0,0,46.68-12.4,115.51,115.51,0,0,0,16.73-10.83c2.75-2.11,5.32-4.39,7.83-6.69C234.39,67.63,235.65,65.56,234.38,64.47Z"/><text class="cls-2" transform="translate(0 83.03) scale(0.79 1)">blinking<tspan class="cls-3" x="156.38" y="0">S</tspan><tspan x="189.12" y="0">oft</tspan></text></g></g></svg>