<?xml version="1.0" encoding="utf-8"?>
<!-- Generator: Adobe Illustrator 24.1.3, SVG Export Plug-In . SVG Version: 6.00 Build 0)  -->
<svg version="1.1" id="Layer_1" xmlns="http://www.w3.org/2000/svg" xmlns:xlink="http://www.w3.org/1999/xlink" x="0px" y="0px"
	 viewBox="0 0 512 512" style="enable-background:new 0 0 512 512;" xml:space="preserve">
<style type="text/css">
	.st0{fill:#203952;}
</style>
<g transform="translate(0.000000,512.000000) scale(0.100000,-0.100000)">
	<path class="st0" d="M2511.8,5066.4c-64-16.7-144.8-68.9-183.2-118.2c-16.7-20.7-40.4-64-53.2-96.5c-32.5-79.8-28.6-194,10.8-272.8
		c68.9-141.8,224.5-223.5,373.2-197c285.6,50.2,394.9,392.9,190.1,596.8C2759,5069.3,2638.8,5100.9,2511.8,5066.4z"/>
	<path class="st0" d="M2384.8,4000.9c-12.8-8.9-26.6-30.5-30.5-46.3c-3.9-16.7,11.8-482.5,37.4-1078.3
		c24.6-577.1,43.3-1051.8,40.4-1055.7c-3-3-114.2-21.7-247.2-42.3c-132.9-19.7-261-42.3-285.6-50.2c-58.1-17.7-111.3-62-145.7-120.1
		c-25.6-44.3-26.6-52.2-29.5-205.8c-3.9-195,5.9-238.3,75.8-308.2c63-63,113.3-78.8,254.1-78.8h111.3v88.6v88.6h-107.3
		c-102.4,0-107.3,1-132.9,25.6c-25.6,25.6-25.6,28.6-25.6,160.5c1,139.8,4.9,154.6,46.3,176.3c26.6,14.8,484.5,84.7,493.4,75.8
		c6.9-6.9,37.4-692.3,30.5-698.2c-2-3-90.6-20.7-196-40.4c-211.7-39.4-265.9-61.1-316.1-124.1c-49.2-63-58.1-103.4-57.1-273.8
		c1-165.4,5.9-191,54.2-259c46.3-65,117.2-99.5,217.6-104.4l81.7-4.9v90.6v89.6h-58.1c-48.3,0-64,3.9-88.6,25.6l-30.5,25.6V493
		c0,188.1-8.9,179.2,220.6,223.5c96.5,18.7,177.3,31.5,180.2,29.5c2-3,10.8-147.7,18.7-322c7.9-174.3,18.7-325,23.6-334.8
		c27.6-52.2,107.3-66,149.7-26.6c30.5,28.6,32.5,46.3,48.3,445.1c5.9,157.6,11.8,286.6,13.8,288.5c1,1,120.1,24.6,264.9,51.2
		c143.8,26.6,274.8,52.2,289.5,55.1c79.8,19.7,153.6,85.7,183.2,163.5c14.8,37.4,16.7,71.9,13.8,215.7
		c-3,190.1-6.9,204.8-73.9,270.8c-58.1,58.1-109.3,74.8-241.3,80.8l-116.2,4.9v-89.6v-88.6l102.4-3.9c92.6-3,105.4-4.9,128-26.6
		c25.6-23.6,25.6-26.6,25.6-165.4c0-185.1,6.9-177.3-192-214.7c-81.7-14.8-199.9-37.4-263.9-49.2l-117.2-22.7l5.9,100.4
		c3,54.2,10.8,212.7,16.7,350.6c5.9,137.9,12.8,253.1,14.8,255.1c2,3,160.5,27.6,351.6,56.1c228.5,34.5,360.4,59.1,386,71.9
		c61.1,28.6,99.5,65,127,121.1c24.6,49.2,25.6,59.1,25.6,213.7c0,150.7-2,167.4-23.6,212.7c-60.1,128-153.6,166.4-390,160.5
		l-113.3-3l-3-85.7l-3-86.7h133.9c142.8,0,191-10.8,210.7-47.3c5.9-11.8,10.8-76.8,10.8-152.6c0-124.1-1-132.9-21.7-151.7
		c-12.8-10.8-26.6-21.7-32.5-24.6c-16.7-8.9-645-100.4-650-94.5c-3,3,13.8,467.8,38.4,1033c46.3,1102,46.3,1075.4-2,1101
		c-12.8,6.9-94.5,10.8-215.7,10.8C2432,4018.6,2403.5,4015.6,2384.8,4000.9z"/>
	<path class="st0" d="M163.1,3733c9.8-36.4,80.8-105.4,132.9-129l52.2-23.6l785.9-3l784.9-3v52.2c0,28.6-3,68.9-5.9,89.6l-6.9,36.4
		h-873.5C165,3752.7,158.2,3752.7,163.1,3733z"/>
	<path class="st0" d="M3297.7,3724.1c0-14.8-3-55.1-5.9-88.6l-6.9-61.1l791.8,3c882.4,3,822.3-2,905,72.9
		c35.5,31.5,68.9,79.8,68.9,97.5c0,3-393.9,4.9-876.5,4.9h-876.5V3724.1z"/>
	<path class="st0" d="M517.6,3379.4c8.9-34.5,72.9-99.5,125.1-127l50.2-26.6l614.5-3c337.8-2,617.5,1,620.4,4.9
		c3.9,3.9,4.9,44.3,3,89.6l-3.9,80.8h-707.1C525.5,3398.2,512.7,3398.2,517.6,3379.4z"/>
	<path class="st0" d="M3278,3309.5v-89.6l618.4,3c689.4,3,649-1,731.7,73.9c34.5,31.5,68,78.8,68,96.5c0,3-319.1,4.9-709,4.9h-709
		V3309.5z"/>
	<path class="st0" d="M984.4,3018c31.5-34.5,127-85.7,205.8-111.3c103.4-33.5,186.1-40.4,480.6-40.4h277.7v72.9
		c0,40.4-3,79.8-5.9,88.6c-4.9,13.8-58.1,15.8-494.4,15.8H960.8L984.4,3018z"/>
	<path class="st0" d="M3264.2,2983.6c-3-33.5-5.9-73.9-5.9-89.6v-28.6l357.5,3.9c395.9,3.9,402.8,4.9,475.7,68.9
		c37.4,33.5,72.9,81.7,72.9,100.4c0,3-200.9,4.9-447.1,4.9h-446.1L3264.2,2983.6z"/>
	<path class="st0" d="M1770.3,2511.8c-85.7-14.8-160.5-69.9-201.9-147.7c-26.6-51.2-32.5-302.3-8.9-375.2
		c21.7-65,74.8-124.1,137.9-152.6c45.3-21.7,62-23.6,214.7-23.6h165.4l-3,86.7l-3,85.7l-148.7,3c-146.7,2-149.7,3-175.3,28.6
		c-24.6,24.6-25.6,29.5-25.6,144.8c0,136.9,7.9,156.6,67,173.3c19.7,4.9,93.6,9.8,162.5,9.8h126.1l-3,86.7l-3,85.7l-128,1
		C1873.7,2518.7,1794.9,2515.8,1770.3,2511.8z"/>
	<path class="st0" d="M2962.8,661.4v-89.6h50.2c93.6,0,116.2-25.6,116.2-132.9s-22.7-132.9-116.2-132.9h-50.2v-88.6v-88.6h62
		c119.2,0,214.7,56.1,259,151.7c20.7,43.3,23.6,65,23.6,158.6c0,83.7-4.9,117.2-18.7,147.7c-45.3,100.4-125.1,151.7-249.2,159.5
		l-76.8,5.9V661.4z"/>
</g>
</svg>
