<?xml version="1.0" encoding="utf-8"?>
<!-- Generator: Adobe Illustrator 24.1.3, SVG Export Plug-In . SVG Version: 6.00 Build 0)  -->
<svg version="1.1" id="Layer_1" xmlns="http://www.w3.org/2000/svg" xmlns:xlink="http://www.w3.org/1999/xlink" x="0px" y="0px"
	 viewBox="0 0 512 512" style="enable-background:new 0 0 512 512;" xml:space="preserve">
<style type="text/css">
	.st0{fill:#FFFFFF;}
	.st1{fill:#003652;}
</style>
<path class="st0" d="M13.5,13v3.8l3.8-3.8H13.5z"/>
<path class="st1" d="M17.4,13.9c-7.3,4-3.9,23.2-3.9,30.3v90.1v95.8c0,9.8-3.7,29.2,0.9,37.8c2.4,4.4,7.9,4.7,12.3,4.8
	c10.1,0.1,20.2,0,30.3,0h106.2c10.5,0,31.6,4,40.7-1.8c6.8-4.4,3.9-19.6,3.9-26.6v-77.7V95.4c0-8.4,2.7-22.7-1.1-30.3
	c-7.1-14.3-26.5-27.6-37.7-38.9c-4.3-4.3-9.1-11.2-15.2-12.9c-7.9-2.1-18.4-0.4-26.5-0.4H70.4h-37C28.8,13,21.6,11.6,17.4,13.9z"/>
<path class="st1" d="M277.1,86h100.5v100.5c0,7.7-4.1,31.4,9.5,29c11.3-2,7.6-22.8,7.6-30.9v-83.4c0-7.8,3-23.9-3.4-29.7
	c-6.3-5.7-22.8-2.6-30.7-2.6h-82.5c4.9-4.9,31.2-27.1,12.3-31.7c-8.8-2.1-18.4,12-23.7,17.4c-5.4,5.4-18.7,14.4-18.8,22.8
	c-0.1,4.6,3.4,8.2,6.4,11.4c7.8,8.1,20.3,26.1,31.3,29c6.5,1.7,12.8-3,11-10c-1.1-4.3-5.1-7.4-8.2-10.4L277.1,86z"/>
<path class="st0" d="M159.6,42.4v19h19L159.6,42.4 M51.5,127.4c-6.5,2.7-5.7,12.1,0.9,14c5.7,1.6,13.1,0.4,19,0.4h39.8
	c5.5,0,15.1,1.8,19.7-1.6c5.4-4.1,2.6-12.1-3.6-13.3c-16.6-3-36.2-0.2-53.1-0.2C67.6,126.7,57.7,124.9,51.5,127.4 M156.7,127.4
	c-5.1,2.1-6.3,9.4-1.7,12.8c3.3,2.5,11.2,2.5,14.9,0.9c5-2.3,6.2-9,1.7-12.4C168.1,126.1,160.7,125.9,156.7,127.4 M52.4,159.6
	c-5.6,1.8-7.7,9.1-2.7,12.9c3.3,2.5,11.2,2.5,14.9,0.9c5.2-2.1,6.1-9.2,1.6-12.5C62.9,158.3,56.4,158.3,52.4,159.6 M93.2,159.5
	c-6.8,2-8.1,11.4-0.9,14c5,1.9,12.6,0.6,18,0.6H151c5.6,0,14.8,1.7,19.8-1.1c7-4,3-12.8-3.7-13.8c-15.4-2.5-32.8-0.2-48.4-0.2
	C110.9,159,100.8,157.3,93.2,159.5 M53.4,191.7c-6.8,1.7-9.3,11-1.9,13.9c5.1,2,12.6,0.7,18,0.7h40.8c5.6,0,14.9,1.8,19.8-0.9
	c8-4.4,2.2-13.2-4.6-14c-14.7-1.9-30.7-0.2-45.5-0.2C71.6,191.2,61.5,189.7,53.4,191.7 M158.6,191.7c-5.9,1.4-9.4,8.9-3.7,13.2
	c3.2,2.4,10.4,2.2,14,1.1c5.7-1.6,7.3-8.5,2.7-12.4C168.4,190.8,162.7,190.7,158.6,191.7z"/>
<path class="st1" d="M312.2,239.1c-7.7,1.7-7.6,8.2-7.6,14.7v42.7v142.2v38.9c0,4.9-1.4,12.5,1.1,17c2.5,4.5,7.8,3.9,12.1,3.9h32.2
	h97.7c13.9,0,32,3.1,45.5-0.3c9.9-2.5,5.7-26.9,5.7-34.8v-109v-43.6c0-5.7,1.4-13.7-1.1-19c-6.8-13.7-25.1-26.3-35.8-37
	c-4.8-4.8-9.9-11.8-16.1-14.5c-10.2-4.6-26.8-1.6-37.9-1.6h-63.5C334.2,238.6,322.2,236.9,312.2,239.1z"/>
<path class="st0" d="M450.6,268.9v19h19L450.6,268.9z"/>
<path class="st1" d="M218.3,442.4c-4.8,4.8-31.4,27.5-12.3,31.8c8.5,1.9,17.5-11.5,22.8-16.6c5.8-5.8,20.3-15.5,19.6-24.7
	c-0.3-4.7-4.2-8.2-7.3-11.4c-7.9-8-19.3-24.7-30.3-28c-6.5-1.9-12.8,3-11,10c1.1,4.3,5.1,7.4,8.2,10.4l11.4,11.4H118.8V324.9
	c0-7.8,4.1-31-9.5-28.8c-11.4,1.9-7.6,22.6-7.6,30.7v83.4c0,7.6-3,24.1,3.2,29.7c6.4,5.7,22.8,2.6,30.9,2.6H218.3z"/>
<path class="st0" d="M342.5,321.8c-8.4,3.4-4.7,24.1-4.7,31.6V433c0,7.4-2.9,23.1,1.6,29.2c4.6,6.2,21.7,3,28.7,3h64.5
	c8.2,0,20.8,2.4,28.4-0.6c8.4-3.2,4.7-24.3,4.7-31.7v-79.6c0-7.4,2.9-23.1-1.6-29.2c-4.6-6.2-21.7-3-28.7-3H371
	C362.8,321.1,350.2,318.7,342.5,321.8z"/>
<path class="st1" d="M353,336.3v17.1H370v-17.1H353 M385.2,336.3v17.1h65.4v-17.1H385.2 M353,368.5v17.1H370v-17.1H353 M385.2,368.5
	v17.1h65.4v-17.1H385.2 M353,400.7v17.1H370v-17.1H353 M385.2,400.7v17.1h65.4v-17.1H385.2 M353,433V450h97.7V433H353z"/>
</svg>
