<?xml version="1.0" encoding="utf-8"?>
<!-- Generator: Adobe Illustrator 24.1.3, SVG Export Plug-In . SVG Version: 6.00 Build 0)  -->
<svg version="1.1" id="Layer_1" xmlns="http://www.w3.org/2000/svg" xmlns:xlink="http://www.w3.org/1999/xlink" x="0px" y="0px"
	 viewBox="0 0 64 64" style="enable-background:new 0 0 64 64;" xml:space="preserve">
<style type="text/css">
	.st0{fill:#003652;}
</style>
<g transform="translate(0.000000,64.000000) scale(0.100000,-0.100000)">
	<path class="st0" d="M305,621c-124-57-153-209-60-319c27-32,27-33,9-47c-17-13-10-14,61-15c134,0,205,32,245,110
		c22,43,26,122,9,167C532,615,403,666,305,621z M400,595c15,18,32,11,23-10c-4-12,5-15,46-15h51v-40c0-22-4-40-10-40
		c-5,0-11-39-12-87l-3-88l-107-3l-108-3v86c0,67-3,87-15,91c-10,4-15,20-15,45v39h51c40,0,50,3,46,14c-9,22,5,28,23,11
		C385,581,388,581,400,595z"/>
	<path class="st0" d="M280,530c0-17,7-20,50-20s50,3,50,20s-7,20-50,20S280,547,280,530z"/>
	<path class="st0" d="M400,530c0-17,7-20,50-20s50,3,50,20s-7,20-50,20S400,547,400,530z"/>
	<path class="st0" d="M300,410v-81l38,3l37,3v75v75l-37,3l-38,3V410z"/>
	<path class="st0" d="M400,410v-80h35h35v80v80h-35h-35V410z"/>
	<path class="st0" d="M22,518c-8-8-12-62-12-175V180h310h310v164c0,134-3,166-15,176c-22,18-26,9-15-31c29-99-45-226-149-258
		c-50-14-291-15-291,0c0,6,18,18,39,26l39,15l-31,45c-30,42-32,51-32,129v84h-70C63,530,29,525,22,518z M120,500c0-5-13-10-29-10
		c-26,0-30-4-33-32c-4-39-22-40-26-2c-6,43,4,54,48,54C102,510,120,506,120,500z M60,243c0-19,6-23,30-23c17,0,30-4,30-10
		c0-5-20-10-45-10H30v38c0,21,3,42,7,45C46,293,60,269,60,243z"/>
	<path class="st0" d="M10,142c0-29,30-32,310-32s310,3,310,32c0,4-139,8-310,8S10,146,10,142z"/>
	<path class="st0" d="M300,55V20h-95c-57,0-95-4-95-10S187,0,320,0s210,4,210,10s-38,10-95,10h-95v35c0,28-4,35-20,35S300,83,300,55
		z"/>
</g>
</svg>
