<?xml version="1.0" encoding="utf-8"?>
<!-- Generator: Adobe Illustrator 24.1.3, SVG Export Plug-In . SVG Version: 6.00 Build 0)  -->
<svg version="1.1" id="Layer_1" xmlns="http://www.w3.org/2000/svg" xmlns:xlink="http://www.w3.org/1999/xlink" x="0px" y="0px"
	 viewBox="0 0 512 512" style="enable-background:new 0 0 512 512;" xml:space="preserve">
<style type="text/css">
	.st0{fill:#003652;}
</style>
<g transform="translate(0.000000,512.000000) scale(0.100000,-0.100000)">
	<path class="st0" d="M2567,5113c-4-3-7-54-7-113v-107l-117-7c-704-40-1335-379-1753-941c-273-368-428-798-456-1272l-7-113h175h175
		l6,118c42,776,562,1472,1301,1743c181,66,373,106,559,116l117,6v-105c0-143,4-145,112-72c377,257,489,338,486,352
		c-3,16-554,402-574,402C2578,5120,2570,5117,2567,5113z"/>
	<path class="st0" d="M2405,4002c-62-21-74-44-101-199c-13-76-24-141-24-144c0-4-30-17-67-30c-38-12-103-39-146-60
		c-43-22-82-39-87-39s-60,36-122,80c-119,86-142,96-185,85c-38-9-250-219-263-261c-15-44,0-76,94-207l77-106l-29-58
		c-17-32-42-94-57-138c-16-44-33-85-39-91c-6-7-63-19-126-28c-144-21-175-31-200-63c-18-23-20-40-20-194v-169l28-31
		c25-28,37-32,178-56l151-26l22-69c12-38,40-103,61-145l39-77l-81-114c-92-132-104-161-82-207c21-45,223-242,257-250
		c43-11,67,0,192,88l119,84l81-39c44-21,110-48,146-59l66-20l23-137c36-218,28-211,256-212c232,0,226-5,264,225c12,71,22,130,23,130
		c27,5,160,56,213,82l71,35l92-66c131-95,151-106,196-106c37,0,46,7,162,123c114,114,123,126,123,161c0,46-4,54-98,184l-75,104
		l34,67c18,36,45,102,60,146l27,80l143,25c79,14,154,32,166,40c37,24,43,54,43,223c0,222,6,214-212,253c-78,13-142,26-143,27
		c-13,49-55,159-81,211c-19,39-34,73-34,78c0,4,30,49,66,99c119,165,125,187,75,255c-43,59-194,202-226,214c-45,17-78,3-196-81
		c-60-43-113-81-118-83c-4-3-37,10-72,28c-35,19-101,46-146,62c-46,15-83,30-83,33c0,39-52,288-64,306c-9,13-33,29-53,34
		C2682,4011,2438,4012,2405,4002z M2691,3024c240-71,386-294,349-532c-37-237-234-404-475-405c-218,0-404,146-460,360
		c-52,199,42,423,221,528C2430,3036,2581,3056,2691,3024z"/>
	<path class="st0" d="M4537,2443c-17-317-122-648-290-920c-342-550-935-906-1569-940l-118-6v105c0,143-4,145-112,72
		c-377-257-489-338-486-352c4-20,558-403,578-400c12,3,16,25,18,114l3,111l117,7c967,55,1787,680,2092,1595c65,195,103,396,116,614
		l7,117h-175h-175L4537,2443z"/>
</g>
</svg>
